<?xml version="1.0" encoding="utf-8"?>
<!-- Generator: Adobe Illustrator 17.1.0, SVG Export Plug-In . SVG Version: 6.00 Build 0)  -->
<!DOCTYPE svg PUBLIC "-//W3C//DTD SVG 1.1//EN" "http://www.w3.org/Graphics/SVG/1.1/DTD/svg11.dtd">
<svg version="1.1" id="Layer_1" xmlns="http://www.w3.org/2000/svg" xmlns:xlink="http://www.w3.org/1999/xlink" x="0px" y="0px"
	 viewBox="0 0 443 179.3" enable-background="new 0 0 443 179.3" xml:space="preserve">
<polygon fill="#1AA3DD" points="0,99.1 0,138.7 68.6,178.3 68.6,138.7 "/>
<polygon fill="#006A97" points="0,59.4 0,99.1 0,99.1 34.3,118.9 34.3,79.3 68.6,59.4 68.6,19.8 "/>
<polygon fill="#006A97" points="68.6,138.7 68.6,178.3 137.3,138.7 137.3,99.1 "/>
<polygon fill="#1AA3DD" points="103,0 103,118.9 137.3,99.1 137.3,19.8 "/>
<path fill="#6D6E70" d="M172.3,128.1c0-5.5,3.8-10.2,9.1-10.2c3.5,0,6.2,2.1,7.7,4.6v-12.3h1.9v25c0,0.6,0.3,0.9,0.8,0.9v1.7
	c-0.2,0-0.4,0-0.6,0c-1.1,0-1.9-0.8-1.9-1.7V134c-1.6,2.6-4.6,4.3-7.5,4.3C176.3,138.3,172.3,133.4,172.3,128.1 M189.1,131.3v-6.5
	c-1.1-2.9-4.4-5.2-7.3-5.2c-4.6,0-7.5,4.3-7.5,8.6c0,4.5,3.5,8.5,7.9,8.5C184.9,136.6,188.8,134.2,189.1,131.3"/>
<path fill="#6D6E70" d="M194.7,128c0-5.6,4.2-10.1,9.7-10.1c5.6,0,9.6,4.6,9.7,10.1c0,0.3,0,0.7,0,0.8h-17.3c0.3,4.6,3.8,8,7.9,8
	c2.8,0,5.5-1.6,6.4-3.8l1.7,0.5c-1.2,2.8-4.5,4.9-8.2,4.9C199,138.3,194.7,133.6,194.7,128 M212.2,127.3c-0.3-4.6-3.6-7.9-7.8-7.9
	c-4.1,0-7.5,3.3-7.7,7.9H212.2z"/>
<polygon fill="#6D6E70" points="216.3,118.2 222.6,126.4 222.9,126.9 223.3,126.4 229.6,118.2 231.7,118.2 224,128.1 231.7,137.9 
	229.6,137.9 223.3,129.8 222.9,129.3 222.6,129.8 216.3,137.9 214.2,137.9 221.9,128.1 214.2,118.2 "/>
<path fill="#6D6E70" d="M243.1,137c-0.4,0.2-2,1.2-4.1,1.2c-2.1,0-3.9-1.3-3.9-3.5v-14.9h-2.8v-1.6h2.8v-6.7h1.9v6.7h4.6v1.6H237
	v14.4c0,1.5,1.2,2.2,2.5,2.2c1.6,0,2.8-0.8,3.1-0.9L243.1,137z"/>
<path fill="#6D6E70" d="M244,128c0-5.6,4.2-10.1,9.7-10.1c5.6,0,9.6,4.6,9.7,10.1c0,0.3,0,0.7,0,0.8H246c0.3,4.6,3.7,8,7.9,8
	c2.8,0,5.5-1.6,6.4-3.8l1.7,0.5c-1.2,2.8-4.5,4.9-8.2,4.9C248.2,138.3,244,133.6,244,128 M261.5,127.3c-0.3-4.6-3.6-7.9-7.8-7.9
	c-4.1,0-7.5,3.3-7.7,7.9H261.5z"/>
<path fill="#6D6E70" d="M275.9,119.9c-3.6,0.1-6.4,2.2-7.4,5.7V138h-1.9v-19.7h1.8v4.9c1.4-2.8,3.8-4.6,6.3-4.9c0.5,0,0.9,0,1.2,0
	V119.9z"/>
<path fill="#6D6E70" d="M276.2,128.1c0-5.5,4.2-10.2,9.6-10.2c5.5,0,9.7,4.7,9.7,10.2c0,5.5-4.2,10.2-9.7,10.2
	C280.3,138.3,276.2,133.6,276.2,128.1 M285.8,136.6c4.2,0,7.7-3.8,7.7-8.5c0-4.6-3.5-8.5-7.7-8.5c-4.2,0-7.7,3.9-7.7,8.6
	C278.1,132.9,281.6,136.6,285.8,136.6"/>
<path fill="#6D6E70" d="M298.8,129.6v-11.4h1.9v11.1c0,4.9,1.6,7.3,5,7.3c3.3,0,6.5-2.4,7.7-6v-12.4h1.9v17.1c0,0.6,0.2,0.9,0.8,0.9
	v1.7c-0.3,0-0.5,0-0.7,0c-1.1,0-1.8-0.7-1.8-1.7v-3c-1.7,3.1-5,5-8.4,5C300.9,138.3,298.8,135.4,298.8,129.6"/>
<path fill="#6D6E70" d="M318.6,135.3l0.9-1.3c2.1,1.9,4.4,2.8,7.1,2.8c3.4,0,5.7-1.5,5.7-4.1c0-2.5-2.2-3.1-6.3-4.1
	c-4.5-1.1-6.5-1.8-6.5-4.9c0-4,3.3-5.8,7.3-5.8c3.1,0,5.6,1.1,6.9,2.8l-1.1,1c-1.3-1.5-3.6-2.3-5.9-2.3c-2.9,0-5.3,1.2-5.3,4.1
	c0,2.3,1.5,2.7,5.2,3.6c5,1.2,7.7,2,7.7,5.5c0,3.5-3,5.8-7.6,5.8C323.6,138.3,320.6,137.3,318.6,135.3"/>
<path fill="#6D6E70" d="M345.2,128.1c0-5.5,3.8-10.2,9.1-10.2c3.5,0,6.2,2.1,7.7,4.6v-12.3h1.9v25c0,0.6,0.3,0.9,0.8,0.9v1.7
	c-0.2,0-0.5,0-0.6,0c-1.1,0-1.9-0.8-1.9-1.7V134c-1.6,2.6-4.6,4.3-7.5,4.3C349.2,138.3,345.2,133.4,345.2,128.1 M362,131.3v-6.5
	c-1.1-2.9-4.4-5.2-7.3-5.2c-4.6,0-7.6,4.3-7.6,8.6c0,4.5,3.5,8.5,7.9,8.5C357.8,136.6,361.7,134.2,362,131.3"/>
<path fill="#6D6E70" d="M368.9,110.3h1.9v3.5h-1.9V110.3z M368.9,118.2h1.9v19.7h-1.9V118.2z"/>
<path fill="#6D6E70" d="M374.4,128.1c0-5.4,3.8-10.2,9.1-10.2c3.5,0,6,2.1,7.8,4.6v-4.3h1.7v20.1c0,5.4-4.3,8.1-9.3,8.1
	c-4.6,0-7.1-1.8-8.8-4.6l1.3-0.9c1.6,2.7,4.4,3.9,7.5,3.9c4,0,7.4-2.2,7.4-6.5V134c-1.6,2.5-4.5,4.2-7.4,4.2
	C378.3,138.2,374.4,133.3,374.4,128.1 M391.2,131.3v-6.5c-1.2-3-4.2-5.2-7.3-5.2c-4.7,0-7.5,4.4-7.5,8.6c0,4.5,3.5,8.5,7.9,8.5
	C387.5,136.6,390.8,133.9,391.2,131.3"/>
<path fill="#6D6E70" d="M397.9,110.3h1.9v3.5h-1.9V110.3z M397.9,118.2h1.9v19.7h-1.9V118.2z"/>
<path fill="#6D6E70" d="M413.6,137c-0.4,0.2-2,1.2-4.1,1.2s-3.9-1.3-3.9-3.5v-14.9h-2.8v-1.6h2.8v-6.7h1.9v6.7h4.6v1.6h-4.6v14.4
	c0,1.5,1.2,2.2,2.5,2.2c1.6,0,2.8-0.8,3.1-0.9L413.6,137z"/>
<path fill="#6D6E70" d="M414.2,132.2c0-3.4,3.4-5.8,8.2-5.8c2.1,0,4.4,0.4,6.1,1.1v-1.9c0-3.7-2.3-6.1-5.9-6.1c-2,0-4.2,0.8-6.3,2.4
	l-0.8-1.3c2.5-1.7,4.9-2.6,7.2-2.6c4.7,0,7.7,3,7.7,7.8v9.6c0,0.6,0.3,0.9,0.8,0.9v1.7c-0.3,0-0.5,0-0.7,0c-0.9,0-1.8-0.7-1.8-1.7
	v-1.6c-1.8,2.4-4.8,3.7-8,3.7C417,138.3,414.2,135.7,414.2,132.2 M427.9,133.8c0.4-0.5,0.6-1.1,0.6-1.5v-3.5
	c-1.9-0.7-3.9-1.1-5.9-1.1c-3.9,0-6.6,1.8-6.6,4.4c0,2.7,2.2,4.7,5,4.7C424,136.8,426.7,135.6,427.9,133.8"/>
<path fill="#6D6E70" d="M435.4,110.3h1.9V134c0,1.5,0.9,2.4,2.3,2.4c0.6,0,1.4-0.1,2.1-0.4l0.4,1.5c-0.9,0.3-2.3,0.6-3.2,0.6
	c-2.1,0-3.5-1.4-3.5-3.6V110.3z"/>
<path fill="#1AA3DD" d="M206.7,20.3v22.2c-1.4-0.7-3.1-1.4-5-2c-1.9-0.6-4.2-0.9-6.7-0.9c-3.7,0-7.1,0.7-10,2
	c-2.9,1.3-5.3,3.2-7.3,5.6c-2,2.4-3.5,5.3-4.6,8.7c-1,3.4-1.6,7.2-1.6,11.3c0,4.2,0.6,8,1.9,11.4c1.2,3.4,3,6.3,5.3,8.7
	c2.3,2.4,5.1,4.2,8.4,5.5c3.3,1.3,7,1.9,11.2,1.9c4,0,7.9-0.3,11.5-0.9c3.6-0.6,6.7-1.3,9.1-2V13.3L206.7,20.3z M206.7,83.3
	c-0.9,0.2-2,0.4-3.4,0.6c-1.4,0.2-3.1,0.3-5,0.3c-4.5,0-8-1.5-10.6-4.6c-2.5-3.1-3.8-7.3-3.8-12.6c0-5.2,1-9.3,3.1-12.3
	c2-3,5.3-4.5,9.7-4.5c2,0,3.9,0.3,5.7,1c1.8,0.6,3.2,1.3,4.3,2.1V83.3z"/>
<path fill="#1AA3DD" d="M257.1,66.3l17.7-25.2H262l-11.2,16.1l-11.1-16.1h-13.4l17.9,25.7c-1.7,2.1-3.5,4.3-5.2,6.7
	c-1.8,2.3-3.5,4.7-5.1,7c-1.7,2.3-3.2,4.6-4.7,6.8c-1.4,2.2-2.7,4.4-3.7,6.4h12.4c1.5-2.6,3.4-5.5,5.6-8.8c2.3-3.3,4.6-6.3,6.9-9.1
	c1.1,1.4,2.3,2.9,3.5,4.4c1.2,1.6,2.3,3.2,3.4,4.8c1.1,1.6,2.1,3.1,3.1,4.6c1,1.5,1.8,2.8,2.4,4.1h13.3c-2.2-4.2-5-8.6-8.4-13.4
	C264.3,75.6,260.8,70.9,257.1,66.3"/>
<path fill="#1AA3DD" d="M344.9,41.1c-0.6,2.8-1.3,5.9-2.1,9.1c-0.8,3.3-1.7,6.6-2.6,10c-0.9,3.4-1.9,6.7-2.8,9.9
	c-0.9,3.2-1.9,6.2-2.7,8.9c-1-3.1-2-6.3-3-9.6c-1-3.3-1.9-6.6-2.7-9.9c-0.8-3.3-1.6-6.5-2.4-9.6c-0.7-3.1-1.4-6.1-2-8.8h-9.4
	c-0.6,2.7-1.3,5.7-2.1,8.8c-0.8,3.1-1.6,6.3-2.5,9.6c-0.9,3.3-1.8,6.6-2.8,9.9c-1,3.3-2,6.5-3,9.6c-0.9-2.7-1.9-5.6-2.8-8.9
	c-0.9-3.2-1.8-6.5-2.7-9.9c-0.9-3.4-1.7-6.7-2.5-10c-0.8-3.3-1.5-6.3-2.1-9.1h-12.9c1.4,5.2,2.9,10.2,4.3,15.2c1.5,5,3,9.7,4.4,14.2
	c1.5,4.5,3,8.7,4.4,12.7c1.5,4,2.9,7.5,4.2,10.6h10c1.7-5,3.5-10.2,5.3-15.9c1.8-5.6,3.4-11.4,5-17.3c1.5,5.9,3.2,11.7,5.1,17.3
	c1.8,5.6,3.6,10.9,5.4,15.9h9.9c1.4-3.1,2.9-6.6,4.3-10.6c1.5-4,3-8.2,4.4-12.7c1.5-4.5,3-9.2,4.4-14.2c1.5-5,2.9-10,4.3-15.2H344.9
	z"/>
</svg>
